# xmcd
#
# Track frame offsets:
#	150
#	21048
#	45969
#	67063
#	90504
#	109825
#	129558
#	154147
#	173851
#	201086
#	226912
#	247523
#
# Disc length: 3547 seconds
#
# Revision: 1
# Processed by: cddbd v1.5.2PL0 Copyright (c) Steve Scherf et al.
# Submitted via: audiograbber 1.83.01
#
DISCID=8e0dd90c
DTITLE=Various Artist - Serious Beats 77 [CD 3)
DYEAR=2014
DGENRE=Dance
TTITLE0=Dj Ghost - Are You Ready?
TTITLE1=Laidback Luke and Peking Duck - Mufasa
TTITLE2=Makj and Henry Fong - Encore
TTITLE3=D.O.D. - Stomp
TTITLE4=Contiez ft. Treyy G - Trumpsta (Djuro Remix)
TTITLE5=Tony Junior - Twerk Anthem
TTITLE6=Emanuel Nava and Gabry Ponte - Scream
TTITLE7=Skyberg - Pong!
TTITLE8=Mako ft. Angel Taylor - Beam (Dannic Remix)
TTITLE9=Arno Cost and Greg Cerrone - Nightventure
TTITLE10=Congorock and Nom De Strip - Minerals
TTITLE11=Vinn - Ritmo Latino
EXTD=
EXTT0=
EXTT1=
EXTT2=
EXTT3=
EXTT4=
EXTT5=
EXTT6=
EXTT7=
EXTT8=
EXTT9=
EXTT10=
EXTT11=
PLAYORDER=
